<svg width="32" height="32" viewBox="0 0 32 32" fill="none" xmlns="http://www.w3.org/2000/svg">
<g clip-path="url(#clip0_1060_314)">
<path d="M24.7773 16.7715H28.5271V25.75H24.7773V16.7715Z" fill="white"/>
<path d="M17.6758 16.7715H21.4258V25.75H17.6758V16.7715Z" fill="white"/>
<path d="M10.5742 16.7715H14.3242V25.75H10.5742V16.7715Z" fill="white"/>
<path d="M3.47266 16.7715H7.22241V25.75H3.47266V16.7715Z" fill="white"/>
<path d="M29.7756 13.959V13.0215H2.22266V13.959C2.22266 14.4768 2.64233 14.8965 3.16016 14.8965H28.8381C29.3557 14.8965 29.7756 14.4768 29.7756 13.959Z" fill="white"/>
<path d="M31.061 27.625H0.937499C0.419677 27.625 0 28.0447 0 28.5625V31.0625C0 31.5803 0.419677 32 0.937499 32H31.061C31.5788 32 31.9985 31.5803 31.9985 31.0625V28.5625C31.9985 28.0447 31.5788 27.625 31.061 27.625Z" fill="white"/>
<path d="M0.937416 11.1465H31.0624C31.4818 11.1465 31.8502 10.8679 31.9645 10.4643C32.0785 10.0608 31.911 9.63037 31.5539 9.41064L16.4914 0.13916C16.1901 -0.0463867 15.81 -0.0463867 15.5085 0.13916L0.445961 9.41064C0.0887835 9.63061 -0.0786969 10.0608 0.0355608 10.4643C0.149819 10.8679 0.518227 11.1465 0.937416 11.1465ZM15.3627 5.51416H16.6374C17.1552 5.51416 17.5749 5.93383 17.5749 6.45166C17.5749 6.96948 17.1552 7.38916 16.6374 7.38916H15.3627C14.8449 7.38916 14.4252 6.96948 14.4252 6.45166C14.4252 5.93383 14.8449 5.51416 15.3627 5.51416Z" fill="white"/>
</g>
<defs>
<clipPath id="clip0_1060_314">
<rect width="32" height="32" fill="white"/>
</clipPath>
</defs>
</svg>
