<svg width="40" height="40" viewBox="0 0 40 40" fill="none" xmlns="http://www.w3.org/2000/svg">
<g clip-path="url(#clip0_1060_393)">
<path fill-rule="evenodd" clip-rule="evenodd" d="M21.9801 40H18.0199C16.8014 40 15.7938 38.9924 15.7938 37.7739V35.7118C14.4112 35.3368 13.099 34.7979 11.8571 34.0715L10.4042 35.5243C9.98243 35.9461 9.42004 36.1804 8.83421 36.1804C8.22496 36.1804 7.66257 35.9461 7.26421 35.5243L4.45226 32.7358C4.03046 32.314 3.81957 31.7516 3.81957 31.1658C3.81957 30.58 4.03046 30.0176 4.45226 29.5958L5.9051 28.1429C5.20211 26.901 4.63972 25.5888 4.26479 24.2062H2.22613C1.00762 24.1828 0 23.1986 0 21.9801V18.0199C0 16.8014 1.00762 15.7938 2.22613 15.7938H4.26479C4.63972 14.4112 5.20211 13.099 5.9051 11.8571L4.45226 10.4042C4.03046 9.98243 3.81957 9.42004 3.81957 8.83421C3.81957 8.22496 4.03046 7.66257 4.45226 7.26421L7.26421 4.47569C7.66257 4.0539 8.22496 3.81957 8.83421 3.81957C9.42004 3.81957 9.98243 4.0539 10.4042 4.47569L11.8571 5.92853C13.099 5.20211 14.4112 4.63972 15.7938 4.28823V2.22613C15.7938 1.00762 16.8014 0 18.0199 0H21.9566C23.1986 0 24.1828 1.00762 24.1828 2.22613V4.28823C25.5653 4.63972 26.901 5.20211 28.1429 5.9051L29.5958 4.45226C30.0176 4.03046 30.58 3.81957 31.1658 3.81957C31.7516 3.81957 32.314 4.03046 32.7358 4.45226L35.5243 7.24077C35.9461 7.66257 36.1804 8.22496 36.1804 8.83421C36.1804 9.42004 35.9461 9.98243 35.5243 10.4042L34.0715 11.8571C34.7979 13.0756 35.3368 14.4112 35.7118 15.7938H37.7739C38.9924 15.7938 40 16.8014 40 18.0199V21.9566C40 23.1986 38.9924 24.1828 37.7739 24.1828H35.7118C35.3368 25.5653 34.7979 26.901 34.0715 28.1429L35.5243 29.5958C35.9461 30.0176 36.1804 30.5565 36.1804 31.1658C36.1804 31.7516 35.9461 32.314 35.5243 32.7358L32.7358 35.5243C32.314 35.9461 31.7516 36.1804 31.1658 36.1804C30.58 36.1804 30.0176 35.9461 29.5958 35.5243L28.1429 34.0715C26.901 34.7979 25.5888 35.3368 24.2062 35.7118V37.7739C24.1828 38.9924 23.1986 40 21.9801 40ZM21.652 36.7897H18.348C18.0902 36.7897 17.8793 36.5788 17.8793 36.321C17.8793 36.0633 18.0902 35.8524 18.348 35.8524H21.652C21.9098 35.8524 22.1207 36.0633 22.1207 36.321C22.1207 36.5788 21.9098 36.7897 21.652 36.7897ZM9.63093 33.1576C9.49033 33.1576 9.37317 33.1107 9.27944 33.0404L6.95958 30.6971C6.77211 30.5097 6.77211 30.2285 6.95958 30.041C7.14704 29.8535 7.42824 29.8535 7.6157 30.041L9.95899 32.3609C10.1465 32.5483 10.1465 32.853 9.95899 33.0404C9.86526 33.1107 9.7481 33.1576 9.63093 33.1576ZM30.3691 33.1576C30.2519 33.1576 30.1347 33.1107 30.041 33.0404C29.8535 32.853 29.8535 32.5483 30.041 32.3609L32.3609 30.041C32.5483 29.8535 32.853 29.8535 33.0404 30.041C33.2279 30.205 33.2045 30.5097 33.0404 30.6971L30.6971 33.0404C30.6034 33.1107 30.4862 33.1576 30.3691 33.1576ZM36.321 22.1207C36.0633 22.1207 35.8524 21.9098 35.8524 21.652V18.348C35.8524 18.0902 36.0633 17.8793 36.321 17.8793C36.5554 17.8793 36.7897 18.0902 36.7897 18.348V21.652C36.7897 21.9098 36.5788 22.1207 36.321 22.1207ZM3.67897 22.1207C3.42121 22.1207 3.21031 21.9098 3.21031 21.652V18.348C3.21031 18.0902 3.42121 17.8793 3.67897 17.8793C3.93673 17.8793 4.14763 18.0902 4.14763 18.348V21.652C4.14763 21.9098 3.93673 22.1207 3.67897 22.1207ZM7.28764 10.0996C7.17047 10.0996 7.05331 10.0527 6.95958 9.95899C6.77211 9.77153 6.77211 9.4669 6.95958 9.30287L9.30287 6.95958C9.4669 6.77211 9.77153 6.77211 9.95899 6.95958C10.1465 7.14704 10.1465 7.42824 9.95899 7.6157L7.6157 9.95899C7.52197 10.0527 7.4048 10.0996 7.28764 10.0996ZM32.6889 10.0996C32.5718 10.0996 32.4546 10.0527 32.3609 9.95899L30.041 7.6157C29.8535 7.42824 29.8535 7.14704 30.041 6.95958C30.205 6.77211 30.5097 6.77211 30.6971 6.95958L33.0404 9.30287C33.2045 9.4669 33.2045 9.77153 33.0404 9.95899C32.9467 10.0527 32.8061 10.0996 32.6889 10.0996ZM21.652 4.14763H18.348C18.0902 4.14763 17.8793 3.93673 17.8793 3.67897C17.8793 3.42121 18.0902 3.21031 18.348 3.21031H21.652C21.9098 3.21031 22.1207 3.42121 22.1207 3.67897C22.1207 3.93673 21.9098 4.14763 21.652 4.14763ZM19.9883 31.6813C13.5442 31.6813 8.31869 26.4323 8.31869 19.9883C8.31869 13.5442 13.5677 8.31869 19.9883 8.31869C26.4323 8.31869 31.6813 13.5677 31.6813 19.9883C31.6813 26.4323 26.4323 31.6813 19.9883 31.6813Z" fill="white"/>
<path fill-rule="evenodd" clip-rule="evenodd" d="M18.7213 28.2835C15.1126 27.7211 12.2538 24.8623 11.7148 21.2536C12.535 22.2378 14.3159 22.9877 16.6123 23.3626C16.9873 25.6825 17.7605 27.4634 18.7213 28.2835ZM11.7148 18.7229C12.2538 15.1142 15.1126 12.2554 18.7213 11.7164C17.7605 12.5366 16.9873 14.3175 16.6123 16.6139C14.3159 16.9888 12.535 17.7621 11.7148 18.7229ZM16.4952 17.5981C16.4249 18.2074 16.378 18.8635 16.3546 19.5196H12.3241C12.7693 18.7463 14.2925 17.9965 16.4952 17.5981ZM16.3546 20.4569C16.378 21.1365 16.4249 21.7692 16.4952 22.3784C14.2925 21.9801 12.7693 21.2302 12.3241 20.4569H16.3546ZM21.252 11.7164C24.8607 12.2554 27.7195 15.1142 28.2819 18.7229C27.4383 17.7621 25.6809 16.9888 23.361 16.6139C22.9861 14.3175 22.2362 12.5366 21.252 11.7164ZM28.2819 21.2536C27.7195 24.8623 24.8607 27.7211 21.252 28.2835C22.2362 27.4634 22.9861 25.6825 23.361 23.3626C25.6809 22.9877 27.4383 22.2378 28.2819 21.2536ZM23.5016 22.3784C23.5719 21.7692 23.6188 21.1365 23.6188 20.4569H27.6492C27.204 21.2302 25.7043 21.9801 23.5016 22.3784ZM23.6188 19.5196C23.6188 18.8635 23.5719 18.2074 23.5016 17.5981C25.7043 17.9965 27.204 18.7463 27.6492 19.5196H23.6188ZM19.518 12.3257C18.7447 12.7709 17.9949 14.2941 17.5965 16.4967C18.2058 16.4264 18.8619 16.3796 19.518 16.3796V12.3257ZM17.4559 17.4575C17.3622 18.1136 17.3153 18.7932 17.2919 19.5196H19.518V17.3169C18.7916 17.3169 18.0886 17.3638 17.4559 17.4575ZM17.2919 20.4569C17.3153 21.2068 17.3622 21.8863 17.4559 22.5424C18.0886 22.6127 18.7916 22.6596 19.518 22.683V20.4569H17.2919ZM17.5965 23.5032C17.9949 25.7059 18.7447 27.2056 19.518 27.6743V23.6204C18.8619 23.6204 18.2058 23.5735 17.5965 23.5032ZM20.4553 27.6743C21.2286 27.2056 21.9785 25.7059 22.3768 23.5032C21.7676 23.5735 21.1349 23.6204 20.4553 23.6204V27.6743ZM22.5409 22.5424C22.6112 21.8863 22.658 21.2068 22.6815 20.4569H20.4553V22.683C21.2052 22.6596 21.8847 22.6127 22.5409 22.5424ZM22.6815 19.5196C22.658 18.7932 22.6112 18.1136 22.5409 17.4575C21.8847 17.3638 21.2052 17.3169 20.4553 17.3169V19.5196H22.6815ZM22.3768 16.4967C21.9785 14.2941 21.2286 12.7709 20.4553 12.3257V16.3796C21.1349 16.3796 21.7676 16.4264 22.3768 16.4967Z" fill="white"/>
</g>
<defs>
<clipPath id="clip0_1060_393">
<rect width="40" height="40" fill="white"/>
</clipPath>
</defs>
</svg>
