<svg width="40" height="40" viewBox="0 0 40 40" fill="none" xmlns="http://www.w3.org/2000/svg">
<path fill-rule="evenodd" clip-rule="evenodd" d="M8 12.8C8 10.149 10.149 8 12.8 8H27.2C29.8509 8 32 10.149 32 12.8V27.2C32 29.8509 29.8509 32 27.2 32H12.8C10.149 32 8 29.8509 8 27.2V12.8ZM12.8 10.4C11.4745 10.4 10.4 11.4745 10.4 12.8V27.2C10.4 28.5255 11.4745 29.6 12.8 29.6H20V21.2H18.8C18.1372 21.2 17.6 20.6628 17.6 20C17.6 19.3372 18.1372 18.8 18.8 18.8H20V17C20 14.6804 21.8804 12.8 24.2 12.8H24.92C25.5828 12.8 26.12 13.3373 26.12 14C26.12 14.6627 25.5828 15.2 24.92 15.2H24.2C23.2059 15.2 22.4 16.0059 22.4 17V18.8H24.92C25.5828 18.8 26.12 19.3372 26.12 20C26.12 20.6628 25.5828 21.2 24.92 21.2H22.4V29.6H27.2C28.5255 29.6 29.6 28.5255 29.6 27.2V12.8C29.6 11.4745 28.5255 10.4 27.2 10.4H12.8Z" fill="#0D9EFF"/>
</svg>
