<svg width="40" height="40" viewBox="0 0 40 40" fill="none" xmlns="http://www.w3.org/2000/svg">
<path d="M19.9997 13.1664C18.6482 13.1664 17.3271 13.5672 16.2034 14.318C15.0796 15.0689 14.2038 16.1361 13.6866 17.3847C13.1694 18.6334 13.0341 20.0074 13.2977 21.3329C13.5614 22.6584 14.2122 23.8761 15.1679 24.8317C16.1235 25.7872 17.3411 26.4381 18.6666 26.7017C19.9922 26.9654 21.3661 26.8301 22.6147 26.3129C23.8634 25.7957 24.9306 24.9199 25.6814 23.7962C26.4324 22.6724 26.8331 21.3512 26.8331 19.9997C26.8352 19.1017 26.6601 18.2122 26.3174 17.3822C25.9747 16.5521 25.4716 15.7979 24.8366 15.163C24.2016 14.528 23.4474 14.0247 22.6174 13.6821C21.7872 13.3395 20.8977 13.1642 19.9997 13.1664ZM19.9997 24.4497C19.1196 24.4497 18.2592 24.1887 17.5274 23.6997C16.7957 23.2109 16.2253 22.5159 15.8885 21.7027C15.5517 20.8896 15.4636 19.9949 15.6353 19.1316C15.807 18.2684 16.2308 17.4754 16.8531 16.8531C17.4754 16.2308 18.2684 15.807 19.1316 15.6353C19.9949 15.4636 20.8896 15.5517 21.7027 15.8885C22.5159 16.2253 23.2109 16.7957 23.6997 17.5274C24.1887 18.2592 24.4497 19.1196 24.4497 19.9997C24.4497 21.1799 23.9809 22.3119 23.1464 23.1464C22.3119 23.9809 21.1799 24.4497 19.9997 24.4497ZM28.7164 12.8831C28.7164 13.2127 28.6187 13.535 28.4356 13.809C28.2524 14.0831 27.9921 14.2967 27.6876 14.4229C27.3831 14.549 27.0479 14.582 26.7246 14.5177C26.4012 14.4534 26.1044 14.2947 25.8712 14.0616C25.6382 13.8285 25.4794 13.5315 25.4151 13.2082C25.3507 12.8849 25.3837 12.5498 25.5099 12.2453C25.6361 11.9407 25.8497 11.6804 26.1237 11.4973C26.3979 11.3142 26.7201 11.2164 27.0497 11.2164C27.4917 11.2164 27.9157 11.392 28.2282 11.7046C28.5409 12.0171 28.7164 12.4411 28.7164 12.8831ZM33.2331 14.5497C33.2816 12.4778 32.5087 10.4707 31.0831 8.96641C29.5867 7.52256 27.5787 6.73134 25.4997 6.76641C23.3331 6.66641 16.6664 6.66641 14.4997 6.76641C12.4284 6.72156 10.4227 7.49392 8.91641 8.91641C7.49081 10.4207 6.71794 12.4278 6.76641 14.4997C6.66641 16.6664 6.66641 23.3331 6.76641 25.4997C6.71794 27.5717 7.49081 29.5787 8.91641 31.0831C10.4227 32.5056 12.4284 33.2779 14.4997 33.2331C16.6997 33.3664 23.2997 33.3664 25.4997 33.2331C27.5717 33.2816 29.5787 32.5087 31.0831 31.0831C32.5087 29.5787 33.2816 27.5717 33.2331 25.4997C33.3331 23.3331 33.3331 16.6664 33.2331 14.4997V14.5497ZM30.3997 27.8831C30.1734 28.4564 29.8319 28.9769 29.3961 29.4127C28.9602 29.8486 28.4397 30.1901 27.8664 30.4164C25.2791 30.9396 22.6341 31.1189 19.9997 30.9497C17.3711 31.1191 14.7314 30.9397 12.1497 30.4164C11.5765 30.1901 11.0559 29.8486 10.6201 29.4127C10.1843 28.9769 9.84271 28.4564 9.61641 27.8831C8.91641 26.1164 9.06641 21.9497 9.06641 20.0164C9.06641 18.0831 8.91641 13.8997 9.61641 12.1497C9.83632 11.5709 10.1755 11.0447 10.6119 10.6054C11.0484 10.1661 11.5723 9.82344 12.1497 9.59974C14.7314 9.07637 17.3711 8.89704 19.9997 9.06641C22.6341 8.89732 25.2791 9.07666 27.8664 9.59974C28.4397 9.82604 28.9602 10.1677 29.3961 10.6034C29.8319 11.0392 30.1734 11.5599 30.3997 12.1331C31.0997 13.8997 30.9331 18.0664 30.9331 19.9997C30.9331 21.9331 31.0997 26.1164 30.3997 27.8664V27.8831Z" fill="#0D9EFF"/>
</svg>
