<svg width="40" height="40" viewBox="0 0 40 40" fill="none" xmlns="http://www.w3.org/2000/svg">
<path d="M39.3319 23.9825L38.1706 23.5175L35.8281 29.375H37.1744L39.3319 23.9825Z" fill="white"/>
<path d="M28.125 8.125H29.375V11.875H28.125V8.125Z" fill="white"/>
<path d="M30.625 9.375H31.875V11.875H30.625V9.375Z" fill="white"/>
<path d="M25.625 9.375H26.875V11.875H25.625V9.375Z" fill="white"/>
<path d="M16.875 15C17.5644 15 18.125 14.4394 18.125 13.75C18.125 13.0606 17.5644 12.5 16.875 12.5V15Z" fill="white"/>
<path d="M13.7497 21.4393L12.6484 23.0912L13.7497 24.4681V21.4393Z" fill="white"/>
<path d="M18.125 10.625H16.875V11.25C17.3325 11.25 17.7556 11.3825 18.125 11.5975V10.625Z" fill="white"/>
<path d="M19.3756 9.375V8.125H4.37562V9.375H19.3756Z" fill="white"/>
<path d="M10.4488 18.125L10.0625 19.2825L11.8731 21.9981L13.6837 19.2825L13.2975 18.125H10.4488Z" fill="white"/>
<path d="M28.125 20.625H21.875V29.375H28.125V20.625ZM24.375 28.125H23.125V21.875H24.375V28.125ZM26.875 28.125H25.625V21.875H26.875V28.125Z" fill="white"/>
<path d="M29.375 29.375H34.375V23.125H29.375V29.375ZM30.625 24.375H33.125V25.625H30.625V24.375ZM30.625 26.875H33.125V28.125H30.625V26.875Z" fill="white"/>
<path d="M29.375 21.875H33.125V13.125H24.375V19.375H29.375V21.875ZM30.625 14.375H31.875V15.625H30.625V14.375ZM30.625 16.875H31.875V18.125H30.625V16.875ZM30.625 19.375H31.875V20.625H30.625V19.375ZM28.125 14.375H29.375V15.625H28.125V14.375ZM26.875 18.125H25.625V16.875H26.875V18.125ZM26.875 15.625H25.625V14.375H26.875V15.625ZM28.125 18.125V16.875H29.375V18.125H28.125Z" fill="white"/>
<path d="M10 24.4681L11.1012 23.0912L10 21.4393V24.4681Z" fill="white"/>
<path d="M13.75 2.16125V6.875H17.9975C17.5437 4.6075 15.8969 2.82688 13.75 2.16125Z" fill="white"/>
<path d="M12.5 1.90625C12.2944 1.88625 12.0863 1.875 11.875 1.875C11.6637 1.875 11.4556 1.88625 11.25 1.90625V6.875H12.5V1.90625Z" fill="white"/>
<path d="M10.0014 2.16125C7.85453 2.82688 6.20766 4.6075 5.75391 6.875H10.0014V2.16125Z" fill="white"/>
<path d="M15.625 35C15.625 34.6556 15.3444 34.375 15 34.375H13.75V33.75C13.75 33.4056 13.4694 33.125 13.125 33.125H12.3931C12.2263 33.125 12.0688 33.19 11.9506 33.3081L11.25 34.0088V35.625H15C15.3444 35.625 15.625 35.3444 15.625 35Z" fill="white"/>
<path d="M16.7619 29.375H19.0762L16.9194 23.9825L18.08 23.5181L20.4231 29.375H20.625V24.7975C19.3987 22.5975 17.3831 20.9625 15 20.205V33.125C16.0338 33.125 16.875 33.9662 16.875 35C16.875 36.0337 16.0338 36.875 15 36.875V38.125H18.125V32.6812C17.4938 31.9787 17.0494 31.0968 16.8837 30.1031L16.7619 29.375Z" fill="white"/>
<path d="M19.375 38.1251H21.875V34.3726C20.9688 34.3638 20.1144 34.1207 19.375 33.6957V38.1251Z" fill="white"/>
<path d="M21.9281 33.125H25.1169C25.3756 32.3994 26.0631 31.875 26.8769 31.875H29.3769C30.1906 31.875 30.8781 32.3994 31.1369 33.125H34.3256C35.9656 33.125 37.3856 32.1094 37.9412 30.625H18.3125C18.8681 32.1094 20.2875 33.125 21.9281 33.125Z" fill="white"/>
<path d="M10 36.875H13.75V38.125H10V36.875Z" fill="white"/>
<path d="M29.375 33.125H26.875C26.5306 33.125 26.25 33.4056 26.25 33.75C26.25 34.7838 27.0912 35.625 28.125 35.625C29.1588 35.625 30 34.7838 30 33.75C30 33.4056 29.7194 33.125 29.375 33.125Z" fill="white"/>
<path d="M15.625 15V10.625H8.125V15C8.125 16.0338 8.96625 16.875 10 16.875H13.75C14.7838 16.875 15.625 16.0338 15.625 15Z" fill="white"/>
<path d="M6.875 10.625H5.625V11.5975C5.99438 11.3825 6.4175 11.25 6.875 11.25V10.625Z" fill="white"/>
<path d="M10 32.9706L10.4256 33.065L11.0669 32.4237C11.4206 32.07 11.8919 31.875 12.3931 31.875H13.125C13.3444 31.875 13.5538 31.9156 13.75 31.985V26.4688L11.875 24.125L10 26.4688V32.9706Z" fill="white"/>
<path d="M5.625 36.6088V38.125H8.75V36.875H7.5C6.84938 36.875 6.22188 36.7781 5.625 36.6088Z" fill="white"/>
<path d="M6.875 15V12.5C6.18562 12.5 5.625 13.0606 5.625 13.75C5.625 14.4394 6.18562 15 6.875 15Z" fill="white"/>
<path d="M10 35.6249V34.2512L7.80062 33.7624C5.78375 33.3143 4.375 31.5581 4.375 29.4918V26.8749H5.625V29.4918C5.625 30.9681 6.63125 32.2224 8.07188 32.5424L8.75 32.6931V20.1949C4.665 21.4831 1.875 25.2387 1.875 29.5887V29.9999C1.875 33.1012 4.39875 35.6249 7.5 35.6249H10Z" fill="white"/>
</svg>
