<svg width="56" height="56" viewBox="0 0 56 56" fill="none" xmlns="http://www.w3.org/2000/svg">
<path fill-rule="evenodd" clip-rule="evenodd" d="M18.8725 28.6645C18.9825 28.6645 19.0923 28.6955 19.1872 28.7585C19.3671 28.8753 19.4669 29.0832 19.445 29.297C19.1303 32.4113 18.3219 35.3138 17.042 37.9246C15.911 40.2307 14.4303 42.2549 12.6188 43.9755C21.4613 39.2485 25.0602 29.1631 23.8462 21.015C23.0838 15.9004 20.0435 10.4342 13.7968 10.4342C8.40544 10.4341 4.01815 14.8214 4.01815 20.2138C4.01824 25.6051 8.4054 29.9924 13.7968 29.9924C15.4773 29.9923 17.1339 29.5588 18.5896 28.7384C18.6776 28.6885 18.7755 28.6645 18.8725 28.6645ZM8.88111 46.717C8.66024 46.717 8.45242 46.5892 8.3565 46.3803C8.23759 46.1175 8.33054 45.8068 8.5753 45.653C15.2066 41.5045 17.4827 35.168 18.1741 30.2302C16.8003 30.8296 15.3066 31.1434 13.7969 31.1434C7.77003 31.1433 2.86719 26.2396 2.86719 20.2138C2.86728 14.1869 7.77001 9.2832 13.7969 9.2832C16.8044 9.28314 19.448 10.4582 21.4423 12.6803C23.2668 14.7124 24.4917 17.5361 24.9843 20.8463C26.4351 30.5789 21.3424 42.9453 9.04895 46.6921C8.99298 46.709 8.93599 46.717 8.88111 46.717Z" fill="#0C71C3"/>
<path fill-rule="evenodd" clip-rule="evenodd" d="M46.7816 28.6645C46.8916 28.6645 47.0014 28.6955 47.0973 28.7585C47.2772 28.8753 47.3761 29.0832 47.3551 29.297C47.0404 32.4113 46.2311 35.3138 44.9512 37.9246C43.8203 40.2307 42.3404 42.2549 40.529 43.9755C49.3695 39.2485 52.9693 29.1631 51.7553 21.015C50.9931 15.9004 47.9536 10.4342 41.707 10.4342C36.3146 10.4341 31.9283 14.8214 31.9283 20.2138C31.9284 25.6051 36.3146 29.9924 41.707 29.9924C43.3866 29.9923 45.0441 29.5588 46.4999 28.7384C46.5879 28.6885 46.6847 28.6645 46.7816 28.6645ZM36.7902 46.717C36.5695 46.717 36.3616 46.5892 36.2667 46.3803C36.1468 46.1175 36.2407 45.8068 36.4845 45.653C43.1169 41.5045 45.3918 35.168 46.0832 30.2302C44.7095 30.8296 43.2167 31.1434 41.707 31.1434C35.6802 31.1433 30.7773 26.2396 30.7773 20.2138C30.7774 14.1869 35.6801 9.2832 41.707 9.2832C44.7134 9.28314 47.3571 10.4582 49.3514 12.6803C51.176 14.7124 52.4008 17.5361 52.8944 20.8453C54.3442 30.5788 49.2515 42.9453 36.9581 46.6921C36.9022 46.709 36.8461 46.717 36.7902 46.717Z" fill="#0C71C3"/>
</svg>
