<svg width="180" height="180" viewBox="0 0 180 180" fill="none" xmlns="http://www.w3.org/2000/svg">
<path d="M42.9462 30.3784C21.7093 30.3784 4.5 47.5877 4.5 68.8247C4.5 88.9632 19.8785 105.074 39.2847 106.905C35.257 114.228 28.3001 121.917 15.8508 129.24C12.5554 131.071 10.3585 134.732 10.3585 138.76C10.3585 146.449 18.4139 151.942 25.3708 148.646C46.2416 139.126 81.0263 116.425 81.0263 68.8247C81.0263 47.2215 64.1832 30.3784 42.9462 30.3784Z" fill="#0D9EFF"/>
<path d="M128.474 30.3784C107.237 30.3784 90.0273 47.5877 90.0273 68.8247C90.0273 88.9632 105.406 105.074 124.812 106.905C120.784 114.228 113.827 121.917 101.378 129.24C98.0827 131.071 95.8858 134.732 95.8858 138.76C95.8858 146.449 103.941 151.942 110.898 148.646C131.769 139.126 166.554 116.425 166.554 68.8247C166.92 47.2215 149.711 30.3784 128.474 30.3784Z" fill="#0D9EFF"/>
</svg>
