<svg width="40" height="40" viewBox="0 0 40 40" fill="none" xmlns="http://www.w3.org/2000/svg">
<path d="M13.9996 15.636C14.9034 15.636 15.636 14.9034 15.636 13.9996C15.636 13.0959 14.9034 12.3633 13.9996 12.3633C13.0959 12.3633 12.3633 13.0959 12.3633 13.9996C12.3633 14.9034 13.0959 15.636 13.9996 15.636Z" fill="#0D9EFF"/>
<path d="M12.3633 17.8184C12.3633 17.216 12.8517 16.7275 13.4542 16.7275H14.5451C15.1476 16.7275 15.636 17.2159 15.636 17.8184V26.5457C15.636 27.1482 15.1476 27.6366 14.5451 27.6366H13.4542C12.8517 27.6366 12.3633 27.1482 12.3633 26.5457V17.8184Z" fill="#0D9EFF"/>
<path d="M18.9073 27.6366H19.9982C20.6007 27.6366 21.0891 27.1482 21.0891 26.5457V21.6366C21.0891 20.0003 24.3619 18.9094 24.3619 21.0912V26.5462C24.3619 27.1487 24.8503 27.6366 25.4528 27.6366H26.5437C27.1462 27.6366 27.6346 27.1482 27.6346 26.5457V20.0003C27.6346 17.8184 25.9982 16.7275 23.8164 16.7275C21.6346 16.7275 21.0891 18.3639 21.0891 18.3639V17.8184C21.0891 17.2159 20.6007 16.7275 19.9982 16.7275H18.9073C18.3048 16.7275 17.8164 17.216 17.8164 17.8184V26.5457C17.8164 27.1482 18.3048 27.6366 18.9073 27.6366Z" fill="#0D9EFF"/>
<path fill-rule="evenodd" clip-rule="evenodd" d="M28.7273 8C30.5348 8 32 9.46525 32 11.2727V28.7273C32 30.5348 30.5348 32 28.7273 32H11.2727C9.46525 32 8 30.5348 8 28.7273V11.2727C8 9.46525 9.46525 8 11.2727 8H28.7273ZM28.7273 10.1818C29.3298 10.1818 29.8182 10.6702 29.8182 11.2727V28.7273C29.8182 29.3298 29.3298 29.8182 28.7273 29.8182H11.2727C10.6702 29.8182 10.1818 29.3298 10.1818 28.7273V11.2727C10.1818 10.6702 10.6702 10.1818 11.2727 10.1818H28.7273Z" fill="#0D9EFF"/>
</svg>
