<svg width="116" height="20" viewBox="0 0 116 20" fill="none" xmlns="http://www.w3.org/2000/svg">
<g clip-path="url(#clip0_1060_616)">
<path d="M19.9479 7.67197C19.8169 7.26699 19.4577 6.97935 19.0328 6.94105L13.2602 6.4169L10.9776 1.0742C10.8093 0.682654 10.426 0.429199 10.0001 0.429199C9.57422 0.429199 9.19091 0.682654 9.0226 1.07512L6.73998 6.4169L0.966514 6.94105C0.542309 6.98027 0.184023 7.26699 0.0523365 7.67197C-0.0793503 8.07695 0.0422654 8.52114 0.363166 8.80115L4.72653 12.6278L3.43987 18.2956C3.34573 18.7123 3.50747 19.1431 3.85325 19.393C4.0391 19.5273 4.25655 19.5956 4.47582 19.5956C4.66488 19.5956 4.85242 19.5447 5.02073 19.444L10.0001 16.468L14.9776 19.444C15.3419 19.6631 15.801 19.6431 16.146 19.393C16.492 19.1423 16.6536 18.7114 16.5594 18.2956L15.2728 12.6278L19.6361 8.80191C19.957 8.52114 20.0796 8.07771 19.9479 7.67197Z" fill="#FFC40E"/>
</g>
<g clip-path="url(#clip1_1060_616)">
<path d="M51.9479 7.67197C51.8169 7.26699 51.4577 6.97935 51.0328 6.94105L45.2602 6.4169L42.9776 1.0742C42.8093 0.682654 42.426 0.429199 42.0001 0.429199C41.5742 0.429199 41.1909 0.682654 41.0226 1.07512L38.74 6.4169L32.9665 6.94105C32.5423 6.98027 32.184 7.26699 32.0523 7.67197C31.9206 8.07695 32.0423 8.52114 32.3632 8.80115L36.7265 12.6278L35.4399 18.2956C35.3457 18.7123 35.5075 19.1431 35.8532 19.393C36.0391 19.5273 36.2565 19.5956 36.4758 19.5956C36.6649 19.5956 36.8524 19.5447 37.0207 19.444L42.0001 16.468L46.9776 19.444C47.3419 19.6631 47.801 19.6431 48.146 19.393C48.492 19.1423 48.6536 18.7114 48.5594 18.2956L47.2728 12.6278L51.6361 8.80191C51.957 8.52114 52.0796 8.07771 51.9479 7.67197Z" fill="#FFC40E"/>
</g>
<g clip-path="url(#clip2_1060_616)">
<path d="M83.9479 7.67197C83.8169 7.26699 83.4577 6.97935 83.0328 6.94105L77.2602 6.4169L74.9776 1.0742C74.8093 0.682654 74.426 0.429199 74.0001 0.429199C73.5742 0.429199 73.1909 0.682654 73.0226 1.07512L70.74 6.4169L64.9665 6.94105C64.5423 6.98027 64.184 7.26699 64.0523 7.67197C63.9206 8.07695 64.0423 8.52114 64.3632 8.80115L68.7265 12.6278L67.4399 18.2956C67.3457 18.7123 67.5075 19.1431 67.8532 19.393C68.0391 19.5273 68.2565 19.5956 68.4758 19.5956C68.6649 19.5956 68.8524 19.5447 69.0207 19.444L74.0001 16.468L78.9776 19.444C79.3419 19.6631 79.801 19.6431 80.146 19.393C80.492 19.1423 80.6536 18.7114 80.5594 18.2956L79.2728 12.6278L83.6361 8.80191C83.957 8.52114 84.0796 8.07771 83.9479 7.67197Z" fill="#FFC40E"/>
</g>
<g clip-path="url(#clip3_1060_616)">
<path d="M115.948 7.67197C115.817 7.26699 115.458 6.97935 115.033 6.94105L109.26 6.4169L106.978 1.0742C106.809 0.682654 106.426 0.429199 106 0.429199C105.574 0.429199 105.191 0.682654 105.023 1.07512L102.74 6.4169L96.9665 6.94105C96.5423 6.98027 96.184 7.26699 96.0523 7.67197C95.9206 8.07695 96.0423 8.52114 96.3632 8.80115L100.727 12.6278L99.4399 18.2956C99.3457 18.7123 99.5075 19.1431 99.8532 19.393C100.039 19.5273 100.257 19.5956 100.476 19.5956C100.665 19.5956 100.852 19.5447 101.021 19.444L106 16.468L110.978 19.444C111.342 19.6631 111.801 19.6431 112.146 19.393C112.492 19.1423 112.654 18.7114 112.559 18.2956L111.273 12.6278L115.636 8.80191C115.957 8.52114 116.08 8.07771 115.948 7.67197Z" fill="#FFC40E"/>
</g>
<defs>
<clipPath id="clip0_1060_616">
<rect width="20" height="20" fill="white"/>
</clipPath>
<clipPath id="clip1_1060_616">
<rect width="20" height="20" fill="white" transform="translate(32)"/>
</clipPath>
<clipPath id="clip2_1060_616">
<rect width="20" height="20" fill="white" transform="translate(64)"/>
</clipPath>
<clipPath id="clip3_1060_616">
<rect width="20" height="20" fill="white" transform="translate(96)"/>
</clipPath>
</defs>
</svg>
